<svg width="238" height="51" viewBox="0 0 238 51" fill="none" xmlns="http://www.w3.org/2000/svg">
<path d="M131.186 33.5662H139.093V29.8649H131.186V33.5662Z" fill="#4DBD38"/>
<path d="M173.357 27.4089H165.884V20.1049H161.692V39.4969H165.884V31.0929H173.357V39.4969H177.549V20.1049H173.357V27.4089ZM145.428 32.3142V20.1049H141.245V39.4969H144.46L154.207 27.2382V39.4969H158.397V20.1049H155.136L145.428 32.3142ZM219.215 19.6836C216.48 19.6836 214.054 20.4076 212.106 22.2476C210.448 23.7849 208.996 26.3235 208.996 29.8209C208.991 32.6449 209.875 35.0862 212.101 37.2235C213.714 38.7556 215.817 39.9329 219.188 39.9275C221.268 39.9275 222.812 39.4049 223.977 38.7956L224.111 38.7235V33.5662L223.662 34.0995C222.601 35.3449 221.118 36.0756 219.444 36.0756C217.916 36.0756 216.376 35.5275 215.225 34.4875C214.077 33.4395 213.298 31.9035 213.298 29.8742C213.298 28.1929 213.894 26.6036 214.938 25.4449C215.983 24.2796 217.47 23.5355 219.296 23.5355C219.948 23.5355 222.006 23.6702 223.662 25.5715L224.111 26.0875V20.9449L223.979 20.8742C222.208 19.9169 220.572 19.6836 219.215 19.6836ZM124.956 28.2822C124.243 28.8222 123.413 28.8262 122.705 28.8262H121.461V23.7902H122.481C123.349 23.7876 124.252 23.8529 124.936 24.3355C125.416 24.6955 125.874 25.3182 125.88 26.2809C125.88 27.0329 125.562 27.8049 124.956 28.2822ZM128.168 21.6155C127.452 20.9835 126.688 20.5996 125.852 20.3809C125.006 20.1636 124.088 20.1049 123.017 20.1049H117.268V39.4969H121.461V32.5089H123.587C125.81 32.5129 127.444 31.8676 128.549 30.7649C130.073 29.2329 130.18 27.1262 130.18 26.3662C130.18 24.9595 129.77 23.0395 128.171 21.6155H128.168ZM225.315 20.1049V23.7902H229.563V39.4969H233.753V23.7902H238V20.1049H225.315ZM71.749 39.4969H82.7358V35.8196H75.94V31.1809H82.4531V27.4969H75.94V23.7902H82.7358V20.1049H71.749V39.4969ZM189.57 34.6089C189.412 34.9609 189.155 35.2729 188.75 35.5182C188.01 35.9542 187.033 35.9956 186.365 35.9956H185.032V31.2889H186.134C186.93 31.2889 187.825 31.3009 188.546 31.6409H188.559H188.554C189.092 31.8809 189.391 32.2235 189.564 32.5742C189.739 32.9262 189.786 33.2849 189.786 33.5556C189.786 33.8942 189.731 34.2676 189.57 34.6089ZM185.032 23.6169H185.852C186.563 23.6169 187.222 23.7769 187.681 24.1116C188.138 24.4516 188.423 24.9449 188.427 25.7409C188.427 26.3022 188.295 26.6996 188.103 27.0062C187.813 27.4489 187.361 27.6889 186.909 27.8169C186.459 27.9436 186.027 27.9515 185.824 27.9515H185.032V23.6169ZM190.664 29.0529C190.913 28.8609 191.197 28.6182 191.467 28.2769C191.964 27.6542 192.393 26.7329 192.393 25.4622C192.391 23.8049 191.717 22.2622 190.538 21.3489C188.918 20.0969 186.817 20.1142 185.77 20.1049H180.84V39.4969H187.437C189.106 39.5022 190.909 39.2142 192.391 37.9116C193.764 36.6822 194.089 35.0462 194.089 33.8969C194.089 32.8689 193.858 31.3195 192.652 30.1742C192.233 29.7755 191.608 29.3116 190.664 29.0529ZM196.362 39.4969H207.346V35.8196H200.548V31.1809H207.062V27.4969H200.548V23.7902H207.346V20.1049H196.362V39.4969ZM67.7334 20.1049H63.5423V35.8196H56.5818V20.1049H52.3928V39.4969H66.0908V43.7476H69.9976V35.8196H67.7334V20.1049ZM97.1284 27.4089H89.6534V20.1049H85.4647V39.4969H89.6534V31.0929H97.1284V39.4969H101.316V20.1049H97.1284V27.4089ZM102.953 23.7902H107.196V39.4969H111.388V23.7902H115.635V20.1049H102.953V23.7902Z" fill="#4DBD38"/>
<path d="M89.1738 6.51158H83.3519V0.718219H79.9164V16.2142H83.3519V9.54224H89.1738V16.2142H92.6039V0.718219H89.1738V6.51158ZM69.2425 10.1729L71.0152 5.73157L72.7529 10.1729H69.2425ZM69.6378 0.718219L63.0642 16.2142H66.7855L68.113 13.0729H73.8132L75.1395 16.2142H78.8375L72.4421 0.718219H69.6378ZM101.543 7.9022L108.123 0.718219H103.738L98.6097 6.61822V0.718219H95.1742V16.2142H98.6097V9.68222L98.6644 9.62623L103.888 16.2142H108.423L101.543 7.9022ZM59.0497 12.5995C58.7138 12.9155 58.09 13.1836 56.9588 13.1836L55.8226 13.1849V9.69823H57.0047C58.0769 9.69823 58.6878 9.96223 59.0252 10.2929C59.3737 10.6302 59.4819 11.0596 59.4887 11.4836C59.4819 11.8689 59.3866 12.2755 59.0497 12.5995ZM61.5119 7.95025L61.5098 7.94758C60.2657 6.85158 58.7356 6.66757 57.5849 6.66757H55.8226V3.74621H61.577V0.718219H52.3928V16.2142H57.6093C58.2753 16.2142 59.0924 16.1609 59.9064 15.8969C60.7172 15.6355 61.5228 15.1476 62.1326 14.2836L62.1351 14.2795V14.2836C62.6768 13.5049 63.0085 12.5289 63.0085 11.4635C63.0085 9.9822 62.4211 8.76092 61.5119 7.95025Z" fill="#4DBD38"/>
<path d="M21.1473 0.678246V11.9516L30.3236 0.678246H21.1473Z" fill="#4DBD38"/>
<path d="M36.8764 2.23421L21.1473 21.5662V26.3822C21.1703 26.2502 21.1891 26.1155 21.2172 25.9795L21.4229 25.1275C21.7978 23.8755 22.3102 22.7969 23.1013 21.7142L23.6366 21.0742C24.2522 20.4502 24.8468 19.9649 25.6182 19.5089C26.0181 19.2996 26.3987 19.1342 26.8153 18.9729C27.7412 18.7049 28.5353 18.5955 29.5119 18.6235L30.4159 18.7489C31.171 18.9262 31.7938 19.1569 32.4729 19.5089C32.8489 19.7289 33.1895 19.9556 33.5321 20.2142C34.559 21.0782 35.272 21.9955 35.8948 23.1328L36.2478 23.9035C36.5374 24.6302 36.739 25.6969 36.8764 26.4129V2.23421Z" fill="#4DBD38"/>
<path d="M29.042 33.5369C26.9742 33.5369 25.2885 31.1516 25.2885 28.2289C25.2885 25.3049 26.9742 22.9182 29.042 22.9182C31.1168 22.9182 32.8134 25.3049 32.8134 28.2289C32.8134 31.1516 31.1168 33.5369 29.042 33.5369ZM29.042 20.3809C25.6077 20.3809 22.8033 23.9049 22.8033 28.2236C22.8033 32.5502 25.6077 36.0756 29.042 36.0756C32.4879 36.0756 35.2911 32.5502 35.2911 28.2236C35.2911 23.9089 32.4879 20.3809 29.042 20.3809Z" fill="#4DBD38"/>
<path d="M21.4228 31.3315L21.2176 30.4729C21.1921 30.3409 21.1707 30.2036 21.1473 30.0756V39.4968H36.8768V30.1235C36.6815 31.1209 36.3733 32.3528 35.8947 33.3275L35.4713 34.0569C34.8334 35.0169 34.1501 35.7755 33.1976 36.4902L32.4733 36.9489C31.7942 37.3009 31.1714 37.5329 30.4163 37.7102C29.9475 37.7902 29.5237 37.8329 29.0425 37.8476C28.4119 37.8249 27.8588 37.7569 27.2443 37.6075C26.8127 37.4795 26.4163 37.3302 26.0033 37.1515C25.0686 36.6622 24.3573 36.1182 23.6432 35.3849L23.1007 34.7382C22.3106 33.6622 21.7992 32.5835 21.4228 31.3315Z" fill="#4DBD38"/>
<path d="M0 37.9476L15.7249 18.6143V13.7996C15.7097 13.9343 15.6816 14.0663 15.6629 14.201L15.4551 15.0516C15.0817 16.3063 14.5672 17.3783 13.7793 18.4716L13.2367 19.1076C12.6279 19.7356 12.0301 20.217 11.2589 20.6703C10.862 20.8823 10.4777 21.0476 10.0596 21.2076C9.13308 21.4809 8.34266 21.585 7.3652 21.557L6.4616 21.4356C5.70291 21.2583 5.08633 21.0236 4.40416 20.6703C4.02555 20.453 3.68853 20.2236 3.34018 19.965C2.31793 19.1023 1.60817 18.1876 0.985323 17.0489L0.626041 16.2783C0.342215 15.5543 0.134381 14.4876 0 13.7689V37.9476Z" fill="#4DBD38"/>
<path d="M7.82831 6.63821C9.90308 6.63821 11.5903 9.02492 11.5903 11.9529C11.5903 14.8809 9.90308 17.2622 7.82831 17.2622C5.75675 17.2622 4.06739 14.8809 4.06739 11.9529C4.06739 9.02492 5.75675 6.63821 7.82831 6.63821ZM7.83151 19.7982C11.2726 19.7982 14.0769 16.2796 14.0769 11.9529C14.0769 7.63025 11.2726 4.10624 7.83151 4.10624C4.39294 4.10624 1.58962 7.63025 1.58962 11.9529C1.58655 16.2756 4.39294 19.7982 7.83151 19.7982Z" fill="#4DBD38"/>
<path d="M15.4546 8.85297L15.6624 9.71026C15.6827 9.84492 15.7092 9.97692 15.7244 10.1022V0.680961H0V10.0609C0.196372 9.06091 0.508858 7.8236 0.985856 6.85694L1.4066 6.12491C2.0461 5.16357 2.73147 4.4063 3.68027 3.68897L4.40416 3.23024C5.08686 2.88091 5.70397 2.65029 6.46107 2.47295C6.92766 2.39429 7.3568 2.34892 7.83127 2.33558C8.46597 2.35425 9.01283 2.42495 9.63567 2.57295C10.0652 2.70495 10.461 2.85028 10.874 3.02894C11.8083 3.51961 12.5222 4.06091 13.2377 4.79691L13.7799 5.43695C14.5672 6.52095 15.0734 7.6023 15.4546 8.85297Z" fill="#4DBD38"/>
<path d="M15.7236 28.2315L6.54983 39.4968H15.7236V28.2315Z" fill="#4DBD38"/>
<path d="M32.4361 0.678223L0.910025 39.4968H4.39126L35.9851 0.678223H32.4361Z" fill="#4DBD38"/>
<path d="M19.7709 39.4968H17.101V36.8275H19.7709V39.4968Z" fill="#4DBD38"/>
<path d="M38.4499 36.8276V39.4969C40.2954 39.4969 41.5812 41.2409 41.5812 43.0662C41.5812 44.8876 40.0809 46.6263 38.239 46.6263C36.8803 46.6263 35.6367 46.3236 33.0647 45.6903C28.067 44.4676 21.9257 42.9596 16.9993 41.7543C8.15219 39.5796 0.0377675 42.0409 0.00390569 47.7903H2.69832C2.69832 45.6543 6.83838 44.2356 15.7032 46.4063C23.3708 48.2889 26.2537 48.9956 32.0274 50.4116C35.8383 51.3476 38.9628 51.1223 41.211 50.0503L41.2168 50.0582C43.4648 48.9702 45.0083 46.3369 45.0083 43.6969C45.0083 40.0009 42.1885 36.8276 38.4499 36.8276Z" fill="#4DBD38"/>
</svg>
